<svg xmlns="http://www.w3.org/2000/svg" xmlns:xlink="http://www.w3.org/1999/xlink" version="1.1" id="Layer_1" x="0px" y="0px" viewBox="0 311.2 799.8 177.5" enable-background="new 0 311.2 799.8 177.5" xml:space="preserve"><g id="mark"><path fill="#99CA3C" d="M64.1 424.5l5.5-13.1L53 413.5c-0.4 0-0.7 0-1.3 0 -0.4 0-0.7 0-1.3 0h-0.2H50c-0.7 0-1.3 0-2 0 -6.9 0-13.5-1.8-19.2-5.3 0 1.3-0.2 2.7-0.7 4 -2.2 5.1-1.8 10.8 0.5 15.5 0.2 0.4 0.4 0.5 0.5 0.9 2 3.7 5.1 6.4 8.9 7.9 4.6 2 9.7 2 14.4 0 4.6-1.8 8.2-5.5 10.2-10 0.2-0.5 0.5-1.1 0.9-1.6l0.2-0.2L64.1 424.5z"/><path fill="#99CA3C" d="M139.5 371.1c-2-3.7-5.1-6.4-8.9-7.9 -4.6-2-9.7-2-14.4 0 -4.6 1.8-8.2 5.5-10.2 10 -0.2 0.5-0.5 1.1-0.9 1.6l-0.2 0.2 -0.2 0.2 -5.5 13.1 16.6-2.2c0.4 0 0.9 0 1.3 0 0.4 0 0.7 0 1.3 0h0.2 0.2c0.7 0 1.3 0 2 0 6.9 0 13.5 1.8 19.2 5.3 0-1.3 0.2-2.7 0.7-4 2.2-5.1 1.8-10.8-0.5-15.5C139.9 371.7 139.7 371.3 139.5 371.1z"/><path fill="#99CA3C" d="M164 360c-0.4-0.9-0.9-1.6-1.3-2.4 -5.1-8.8-12.6-15.3-21.9-19.2 -5.1-2.2-9.7-3.1-14.6-3.5 -0.4-1.5-0.9-2.7-1.6-4.2 -0.4-0.7-0.7-1.3-1.3-1.8 -7.7-9.9-18.6-16.3-31-17.5H92c-0.7 0-1.6-0.2-2.4-0.2 -0.9 0-1.8 0-2.7 0 -10.2-0.2-19.7 3.1-27.8 9.1 -4 3.1-7.5 6.8-10.2 11 -2.2-0.5-4.6-0.7-6.8-0.4 -13.1 1.6-24.8 9.1-32.1 20.1 -0.4 0.7-0.9 1.5-1.3 2l-0.2 0.2c-4.9 8.9-6.9 18.8-5.7 28.7 0.7 5.1 2.2 9.9 4.4 14.4 -1.6 1.6-2.9 3.5-3.8 5.7 -5.1 12.2-4.6 26.1 1.3 38 0.4 0.7 0.9 1.6 1.3 2.4 5.1 8.8 12.6 15.3 21.9 19.2 4.7 2 9.7 3.1 14.6 3.5 0.4 1.5 0.9 2.9 1.6 4.2 0.4 0.7 0.7 1.3 1.3 1.8 8 10.6 20.3 17 33.6 17.7 0.7 0 1.5 0 2.4 0h0.4c10 0 19.5-3.3 27.6-9.3 4-3.1 7.5-6.8 10.2-11 2.2 0.5 4.6 0.7 6.8 0.5 12.4-1.6 23.4-8 30.7-18.1l0.2-0.2c0.5-0.7 0.9-1.3 1.3-1.8 0.5-0.7 0.9-1.5 1.5-2.4 5.1-8.8 6.9-18.6 5.7-28.7 -0.2-1.6-0.5-3.5-0.9-5.1 -0.7-2.7-1.5-5.3-2.7-7.9 -0.2-0.5-0.4-0.9-0.7-1.5 1.6-1.6 2.9-3.5 3.8-5.7C170.4 385.8 169.8 371.9 164 360zM158 394.9c-0.9 2.4-2.7 4-5.1 5.1 -0.5 0.2-0.4 1.6 0 3.1 0.4 1.3 0.7 2.6 1.3 3.5 0.4 0.5 0.5 1.1 0.9 1.8 0.9 2 1.6 4.2 2.2 6.4 0.4 1.5 0.5 2.9 0.9 4.4 1.1 8.2-0.5 16.4-4.7 23.6 -0.4 0.7-0.7 1.3-1.3 2 -0.4 0.5-0.7 1.1-1.1 1.6 0 0 0 0-0.2 0.2 -6 8.2-15.2 13.5-25.4 14.8 -0.9 0.2-2 0.2-2.9 0 2.6-6 3.8-12.6 3.7-19.2 4.2-1.3 7.7-3.8 10.2-7.7 0.2-0.4 0.4-0.5 0.5-0.9 2-3.7 2.9-7.7 2.4-11.9 -0.4-2.6-1.1-4.7-2.4-6.9 -1.3-2.2-2.9-4-4.7-5.5 -4-3.1-8.9-4.4-13.9-3.8 -0.5 0-1.3 0.2-2 0H116h-0.4l-6 0.7 -11.1-14.8c-0.4-0.4-0.7-0.7-1.1-1.3 -0.4-0.5-0.7-1.1-1.1-1.6l-11.3-14.6 3.3-8c0.4-0.7 0.7-1.5 1.3-2.2l0.2-0.2 0.2-0.2c3.1-6.2 8-11.5 14.1-15.2 0.4-0.2 0.7-0.4 1.1-0.5 -1.3-0.5-2.2-1.5-3.1-2.6 -3.3-4.4-8.4-6.9-13.7-7.3 -0.4 0-0.7 0-1.1 0 -4.2 0-8 1.3-11.3 3.8l0 0 0 0c-4 3.1-6.6 7.5-7.1 12.4 -0.7 4.9 0.7 9.9 3.7 13.9 0.4 0.5 0.7 1.1 1.1 1.6l0.2 0.2 0.2 0.2 17.5 22.8c0.4 0.4 0.5 0.7 0.7 1.3l0.2 0.4 0.4 0.4c0.4 0.4 0.5 0.5 0.9 0.9l17.5 23 1.5 1.8c0.5 0.7 0.9 1.3 1.3 2.2l0.2 0.2 0.2 0.2 0 0c0.4 0.5 0.5 0.9 0.9 1.5 0 0.2 0.2 0.4 0.2 0.5 0.2 0.4 0.4 0.7 0.5 0.9 0.2 0.2 0.2 0.4 0.4 0.5 0.2 0.4 0.4 0.7 0.5 0.9 0 0.2 0.2 0.4 0.2 0.5 0.2 0.5 0.4 0.9 0.5 1.5 0 0.2 0.2 0.4 0.2 0.5 0.2 0.4 0.2 0.5 0.4 0.9 0.2 0.2 0.2 0.5 0.2 0.7 0 0.2 0.2 0.4 0.2 0.7 0 0.4 0.2 0.5 0.2 0.9 0 0.2 0.2 0.4 0.2 0.5 0.4 1.1 0.5 2.4 0.7 3.5v0.2c0 0.4 0.2 0.7 0.2 1.3v0.2c0.2 1.8 0.4 3.5 0.4 5.3l0 0 0 0c-0.2 6.8-2 13.5-5.7 19.2 0 0 0 0 0 0.2 -1.5 2.4-3.1 4.6-5.1 6.6l0 0c-0.4 0.4-0.7 0.7-1.3 1.1 -0.2 0.2-0.2 0.2-0.4 0.4 -0.4 0.2-0.5 0.5-0.9 0.7 -0.4 0.4-0.9 0.7-1.3 1.1l0 0c-6.6 5.1-14.4 7.7-22.8 7.7 0 0 0 0-0.2 0l0 0 0 0c-0.7 0-1.5 0-2 0 -11-0.5-21-5.8-27.8-14.6 -0.2-0.4-0.5-0.7-0.7-1.1 -1.1-1.8-1.5-3.8-1.1-5.8 0-0.2 0-0.2 0-0.4 -0.5-0.9-3.1-1.8-4.7-1.8 -4.9 0-9.7-0.9-14.2-2.9 -7.7-3.1-13.9-8.6-18.1-15.9 -0.4-0.7-0.7-1.3-1.1-2 -5.5-10-6-21.4-1.6-31.4 0.9-2.4 2.7-4 5.1-5.1 0.2 0 0.2-0.2 0.2-0.2 0.4-1.1-0.5-4.6-1.6-6.6 -1.8-3.7-3.3-7.9-3.8-12.2 -1.1-8.2 0.5-16.4 4.7-23.6 0 0 0 0 0-0.2l0 0 0 0c0.4-0.5 0.7-1.3 1.1-1.8 6-9.1 15.5-15.2 26.5-16.6 0.9-0.2 2-0.2 2.9 0 -2.6 6-3.8 12.6-3.7 19.2 -4.2 1.3-7.7 4-10.2 7.7 -0.2 0.4-0.4 0.5-0.5 0.9 -2 3.7-2.9 7.7-2.4 11.9 0.4 2.6 1.1 4.7 2.4 6.9s2.9 4 4.7 5.5c4 3.1 8.9 4.4 13.9 3.8 0.5 0 1.3-0.2 2 0h0.4H53l6-0.7 11.3 14.8c0.4 0.4 0.7 0.7 1.1 1.3 0.4 0.5 0.7 1.1 1.1 1.6l11.3 14.6 -3.5 7.7c-0.4 0.7-0.7 1.5-1.3 2.2l-0.2 0.2 -0.2 0.2c-3.1 6.2-8 11.5-14.1 15.2 -0.4 0.2-0.7 0.4-1.1 0.5 1.3 0.5 2.2 1.5 3.1 2.6 3.3 4.4 8.4 6.9 13.9 7.3 0.4 0 0.7 0 1.1 0 4.2 0 8-1.3 11.3-3.8l0 0 0 0c4-3.1 6.6-7.5 7.1-12.4 0.7-4.9-0.7-9.9-3.7-13.9 -0.4-0.5-0.7-1.1-1.1-1.6l-0.2-0.2 0.4-0.4L78 406.9c-0.4-0.4-0.5-0.7-0.7-1.3l-0.2-0.4h-0.4c-0.4-0.4-0.5-0.5-0.9-0.9L57 379.5c-0.5-0.7-0.9-1.3-1.3-2.2l-0.2-0.2 -0.2-0.2c-0.4-0.5-0.5-0.9-0.9-1.5 0-0.2-0.2-0.4-0.2-0.4 -0.2-0.4-0.4-0.7-0.5-0.9 -0.2-0.2-0.2-0.4-0.4-0.5 -0.2-0.4-0.4-0.7-0.5-0.9 0-0.2-0.2-0.4-0.2-0.5 -0.2-0.5-0.4-0.9-0.5-1.5 0-0.2-0.2-0.4-0.2-0.5 -0.2-0.4-0.2-0.5-0.4-0.9 0-0.2-0.2-0.5-0.2-0.7s-0.2-0.5-0.2-0.7c0-0.4-0.2-0.5-0.2-0.9 0-0.2-0.2-0.4-0.2-0.5 -0.4-1.1-0.5-2.2-0.7-3.5v-0.2c0-0.4-0.2-0.7-0.2-1.1v-0.2c-0.2-1.8-0.4-3.5-0.4-5.3 0.2-6.9 2.2-13.9 5.8-19.7 0.2-0.4 0.5-0.7 0.7-1.1 0-0.2 0.2-0.2 0.2-0.4 0.2-0.4 0.4-0.5 0.7-0.9 0.2-0.2 0.2-0.4 0.4-0.4 0.2-0.4 0.4-0.5 0.7-0.9 0.2-0.2 0.4-0.4 0.4-0.5 0.2-0.2 0.4-0.5 0.7-0.7 0.2-0.2 0.4-0.4 0.5-0.5 0.2-0.2 0.4-0.4 0.5-0.7 0.2-0.2 0.4-0.4 0.5-0.5 0.2-0.2 0.4-0.4 0.5-0.5 0.2-0.2 0.5-0.5 0.7-0.7 0.2-0.2 0.4-0.4 0.5-0.4 0.4-0.4 0.9-0.7 1.3-1.1 6.6-5.1 14.4-7.7 22.8-7.7 0.7 0 1.5 0 2.2 0 0.7 0 1.5 0.2 2 0.2l0 0c10 1.1 19.4 6.2 25.6 14.4 0.2 0.4 0.5 0.7 0.7 1.1 1.1 1.8 1.5 3.8 1.1 5.8 0 0.2 0 0.2 0.2 0.4 0.9 0.9 4.6 1.8 5.3 1.8 4.9 0 9.1 0.9 13.7 2.9 7.7 3.1 13.9 8.6 18.1 15.9 0.4 0.7 0.7 1.3 1.1 2C161.8 373.5 162.2 384.7 158 394.9z"/><line fill="none" x1="119.4" y1="443.8" x2="119.4" y2="443.8"/></g><g id="text"><path fill="#99CA3C" d="M281.6 416.4c0-5.7-6.6-9.7-19.5-12.1h-0.2c-5.8-1.1-10.8-2.7-15-4.7 -4.2-2-7.3-4.6-9.3-7.7 -2-3.1-2.9-6.4-2.9-9.7 0-6.4 2.9-11.7 8.6-15.9 5.7-4.2 12.2-6.2 19.7-6.2 3.3 0 6.6 0.5 10 1.6s6 2.2 7.7 3.1c1.6 0.9 3.8 2.4 6.6 4.2 1.3 0.9 2 2.2 2.4 3.7 0.4 1.6 0 2.9-0.7 4.2 -0.9 1.3-2 2.2-3.7 2.4 -1.6 0.4-2.9 0-4.4-0.9 -3.5-2.4-6.6-4.2-9.3-5.3 -2.7-1.3-5.7-1.8-8.6-1.8 -4.9 0-8.9 1.1-12.1 3.5 -3.1 2.4-4.7 4.7-4.7 7.3 0 1.3 0.4 2.4 0.9 3.3 2 3.5 7.7 6 16.8 7.7h0.2c6.2 1.3 11.3 2.7 15.3 4.7 9.1 4.6 13.9 10.8 13.9 18.6 0 6.9-3.1 12.6-9.1 17s-13.1 6.6-21 6.6c-9.7 0-19.2-3.8-28.5-11.1 -1.3-0.9-1.8-2.2-2-3.8 -0.2-1.6 0.2-3.1 1.1-4.2 0.9-1.1 2.2-1.8 3.8-2 1.6-0.2 3.1 0.2 4.2 1.3 7.1 5.8 14.2 8.6 21.4 8.6 5.5 0 10-1.3 13.5-3.8C279.8 422.3 281.6 419.5 281.6 416.4z"/><path fill="#99CA3C" d="M390.2 408c0 8.8-3.1 16.4-9.5 22.6 -6.2 6.4-13.9 9.5-22.8 9.5s-16.4-3.1-22.8-9.5c-6.2-6.2-9.5-13.9-9.5-22.8v-39.4c0-1.6 0.5-3.1 1.8-4.4 1.3-1.3 2.6-1.8 4.4-1.8 1.8 0 3.1 0.5 4.4 1.8 1.3 1.3 1.8 2.6 1.8 4.4V408c0 5.5 2 10 5.8 14.1 3.8 4 8.6 5.8 14.1 5.8s10.2-2 14.1-5.8c3.8-3.8 5.8-8.6 5.8-14.1v-39.6c0-1.6 0.5-3.1 1.8-4.4 1.3-1.3 2.7-1.8 4.4-1.8 1.6 0 3.1 0.5 4.4 1.8 1.3 1.3 1.8 2.6 1.8 4.4L390.2 408 390.2 408z"/><path fill="#99CA3C" d="M438.6 440.2L438.6 440.2c-0.2-0.2-0.4 0-0.4 0 -1.6 0-3.1-0.5-4.4-1.8 -1.3-1.3-1.8-2.6-1.8-4.4v-65.7c0-1.6 0.5-3.1 1.8-4.4 1.1-1.3 2.6-1.8 4.4-1.8h15.9c5.8 0 10.8 2 15 6.2s6.2 8.8 6.2 14.1 -1.5 9.9-4.2 13.5c3.5 2.2 6.2 4.9 8.2 8.6 2 3.7 3.1 7.5 3.1 11.5 0 6.6-2.4 12.2-6.9 17 -4.6 4.7-10.2 6.9-16.8 6.9h-20.1V440.2zM444.5 374.6v17.9h9.5c2.4 0 4.6-0.9 6.2-2.7 1.6-1.8 2.6-3.8 2.6-6.4 0-2.4-0.9-4.6-2.6-6.2 -1.6-1.6-3.8-2.6-6.2-2.6C454 374.6 444.5 374.6 444.5 374.6zM444.5 404.7v23.2h13.9c3.1 0 5.8-1.3 8.2-3.5 2.2-2.2 3.3-4.9 3.3-8.2 0-3.1-1.1-5.8-3.3-8s-4.9-3.3-8.2-3.5C458.3 404.7 444.5 404.7 444.5 404.7z"/><path fill="#99CA3C" d="M519.9 440.2c-1.6 0-3.1-0.5-4.4-1.8 -1.3-1.3-1.8-2.6-1.8-4.4v-65.7c0-1.6 0.5-3.1 1.8-4.4 1.1-1.3 2.6-1.8 4.4-1.8 1.6 0 3.1 0.5 4.4 1.8 1.3 1.3 1.8 2.6 1.8 4.4v59.7h30.1c1.6 0 3.1 0.5 4.2 1.8 1.1 1.3 1.8 2.7 1.8 4.4s-0.5 3.1-1.8 4.4c-1.3 1.3-2.7 1.8-4.2 1.8h-36.3V440.2z"/><path fill="#99CA3C" d="M592.9 368.4c0-1.6 0.5-3.1 1.8-4.4 1.3-1.3 2.6-1.8 4.4-1.8 1.6 0 3.1 0.5 4.4 1.8 1.3 1.3 1.8 2.6 1.8 4.4v65.7c0 1.6-0.5 3.1-1.8 4.4 -1.3 1.3-2.7 1.8-4.4 1.8s-3.1-0.5-4.4-1.8c-1.3-1.3-1.8-2.6-1.8-4.4V368.4z"/><path fill="#99CA3C" d="M675.3 412.1h-0.2c-2.2 0-3.8-0.9-5.1-2.6l-15.9-22.3v46.9c0 1.6-0.5 3.1-1.8 4.4s-2.7 1.8-4.4 1.8c-1.6 0-3.1-0.5-4.4-1.8 -1.3-1.3-1.8-2.6-1.8-4.4v-65.7c0-1.6 0.5-3.1 1.8-4.4 1.1-1.3 2.6-1.8 4.4-1.8h0.4c2.2 0 3.8 0.9 4.9 2.6l22.1 30.7 22.1-30.7c1.3-1.6 2.9-2.6 4.9-2.6h0.2c1.6 0 3.1 0.7 4.4 1.8 1.3 1.3 1.8 2.6 1.8 4.2V434c0 1.6-0.5 3.1-1.8 4.2 -1.3 1.1-2.7 1.8-4.4 1.8s-3.1-0.5-4.4-1.8c-1.3-1.3-1.8-2.6-1.8-4.4v-46.6l-16.1 22.3C679.1 411.1 677.5 412.1 675.3 412.1z"/><path fill="#99CA3C" d="M757.5 440.2c-1.6 0-3.1-0.5-4.4-1.8 -1.3-1.3-1.8-2.6-1.8-4.4v-65.7c0-1.6 0.5-3.1 1.8-4.4 1.1-1.3 2.6-1.8 4.4-1.8h36.3c1.6 0 3.1 0.5 4.2 1.8 1.1 1.3 1.8 2.6 1.8 4.4 0 1.8-0.5 3.1-1.8 4.4s-2.7 1.8-4.2 1.8h-30.1v20.6h25.9c1.6 0 3.1 0.5 4.2 1.8 1.1 1.3 1.8 2.7 1.8 4.4s-0.5 3.1-1.8 4.4c-1.3 1.3-2.6 1.8-4.4 1.8h-25.9v20.5h30.1c1.6 0 3.1 0.5 4.2 1.8 1.1 1.3 1.8 2.7 1.8 4.4s-0.5 3.1-1.8 4.4c-1.3 1.3-2.7 1.8-4.2 1.8h-35.8 -0.4V440.2z"/></g></svg>