<svg xmlns="http://www.w3.org/2000/svg" xmlns:xlink="http://www.w3.org/1999/xlink" version="1.1" id="Layer_1" x="0px" y="0px" viewBox="0 311.2 799.8 177.5" enable-background="new 0 311.2 799.8 177.5" xml:space="preserve"><g id="mark"><path fill="#99CA3C" d="M64.1 424.5l5.5-13.1L53 413.5c-0.4 0-0.7 0-1.3 0 -0.4 0-0.7 0-1.3 0h-0.2H50c-0.7 0-1.3 0-2 0 -6.9 0-13.5-1.8-19.2-5.3 0 1.3-0.2 2.7-0.7 4 -2.2 5.1-1.8 10.8 0.5 15.5 0.2 0.4 0.4 0.5 0.5 0.9 2 3.7 5.1 6.4 8.9 7.9 4.6 2 9.7 2 14.4 0 4.6-1.8 8.2-5.5 10.2-10 0.2-0.5 0.5-1.1 0.9-1.6l0.2-0.2L64.1 424.5z"/><path fill="#99CA3C" d="M139.5 371.1c-2-3.7-5.1-6.4-8.9-7.9 -4.6-2-9.7-2-14.4 0 -4.6 1.8-8.2 5.5-10.2 10 -0.2 0.5-0.5 1.1-0.9 1.6l-0.2 0.2 -0.2 0.2 -5.5 13.1 16.6-2.2c0.4 0 0.9 0 1.3 0 0.4 0 0.7 0 1.3 0h0.2 0.2c0.7 0 1.3 0 2 0 6.9 0 13.5 1.8 19.2 5.3 0-1.3 0.2-2.7 0.7-4 2.2-5.1 1.8-10.8-0.5-15.5C139.9 371.7 139.7 371.3 139.5 371.1z"/><path fill="#99CA3C" d="M164 360c-0.4-0.9-0.9-1.6-1.3-2.4 -5.1-8.8-12.6-15.3-21.9-19.2 -5.1-2.2-9.7-3.1-14.6-3.5 -0.4-1.5-0.9-2.7-1.6-4.2 -0.4-0.7-0.7-1.3-1.3-1.8 -7.7-9.9-18.6-16.3-31-17.5H92c-0.7 0-1.6-0.2-2.4-0.2 -0.9 0-1.8 0-2.7 0 -10.2-0.2-19.7 3.1-27.8 9.1 -4 3.1-7.5 6.8-10.2 11 -2.2-0.5-4.6-0.7-6.8-0.4 -13.1 1.6-24.8 9.1-32.1 20.1 -0.4 0.7-0.9 1.5-1.3 2l-0.2 0.2c-4.9 8.9-6.9 18.8-5.7 28.7 0.7 5.1 2.2 9.9 4.4 14.4 -1.6 1.6-2.9 3.5-3.8 5.7 -5.1 12.2-4.6 26.1 1.3 38 0.4 0.7 0.9 1.6 1.3 2.4 5.1 8.8 12.6 15.3 21.9 19.2 4.7 2 9.7 3.1 14.6 3.5 0.4 1.5 0.9 2.9 1.6 4.2 0.4 0.7 0.7 1.3 1.3 1.8 8 10.6 20.3 17 33.6 17.7 0.7 0 1.5 0 2.4 0h0.4c10 0 19.5-3.3 27.6-9.3 4-3.1 7.5-6.8 10.2-11 2.2 0.5 4.6 0.7 6.8 0.5 12.4-1.6 23.4-8 30.7-18.1l0.2-0.2c0.5-0.7 0.9-1.3 1.3-1.8 0.5-0.7 0.9-1.5 1.5-2.4 5.1-8.8 6.9-18.6 5.7-28.7 -0.2-1.6-0.5-3.5-0.9-5.1 -0.7-2.7-1.5-5.3-2.7-7.9 -0.2-0.5-0.4-0.9-0.7-1.5 1.6-1.6 2.9-3.5 3.8-5.7C170.4 385.8 169.8 371.9 164 360zM158 394.9c-0.9 2.4-2.7 4-5.1 5.1 -0.5 0.2-0.4 1.6 0 3.1 0.4 1.3 0.7 2.6 1.3 3.5 0.4 0.5 0.5 1.1 0.9 1.8 0.9 2 1.6 4.2 2.2 6.4 0.4 1.5 0.5 2.9 0.9 4.4 1.1 8.2-0.5 16.4-4.7 23.6 -0.4 0.7-0.7 1.3-1.3 2 -0.4 0.5-0.7 1.1-1.1 1.6 0 0 0 0-0.2 0.2 -6 8.2-15.2 13.5-25.4 14.8 -0.9 0.2-2 0.2-2.9 0 2.6-6 3.8-12.6 3.7-19.2 4.2-1.3 7.7-3.8 10.2-7.7 0.2-0.4 0.4-0.5 0.5-0.9 2-3.7 2.9-7.7 2.4-11.9 -0.4-2.6-1.1-4.7-2.4-6.9 -1.3-2.2-2.9-4-4.7-5.5 -4-3.1-8.9-4.4-13.9-3.8 -0.5 0-1.3 0.2-2 0H116h-0.4l-6 0.7 -11.1-14.8c-0.4-0.4-0.7-0.7-1.1-1.3 -0.4-0.5-0.7-1.1-1.1-1.6l-11.3-14.6 3.3-8c0.4-0.7 0.7-1.5 1.3-2.2l0.2-0.2 0.2-0.2c3.1-6.2 8-11.5 14.1-15.2 0.4-0.2 0.7-0.4 1.1-0.5 -1.3-0.5-2.2-1.5-3.1-2.6 -3.3-4.4-8.4-6.9-13.7-7.3 -0.4 0-0.7 0-1.1 0 -4.2 0-8 1.3-11.3 3.8l0 0 0 0c-4 3.1-6.6 7.5-7.1 12.4 -0.7 4.9 0.7 9.9 3.7 13.9 0.4 0.5 0.7 1.1 1.1 1.6l0.2 0.2 0.2 0.2 17.5 22.8c0.4 0.4 0.5 0.7 0.7 1.3l0.2 0.4 0.4 0.4c0.4 0.4 0.5 0.5 0.9 0.9l17.5 23 1.5 1.8c0.5 0.7 0.9 1.3 1.3 2.2l0.2 0.2 0.2 0.2 0 0c0.4 0.5 0.5 0.9 0.9 1.5 0 0.2 0.2 0.4 0.2 0.5 0.2 0.4 0.4 0.7 0.5 0.9 0.2 0.2 0.2 0.4 0.4 0.5 0.2 0.4 0.4 0.7 0.5 0.9 0 0.2 0.2 0.4 0.2 0.5 0.2 0.5 0.4 0.9 0.5 1.5 0 0.2 0.2 0.4 0.2 0.5 0.2 0.4 0.2 0.5 0.4 0.9 0.2 0.2 0.2 0.5 0.2 0.7 0 0.2 0.2 0.4 0.2 0.7 0 0.4 0.2 0.5 0.2 0.9 0 0.2 0.2 0.4 0.2 0.5 0.4 1.1 0.5 2.4 0.7 3.5v0.2c0 0.4 0.2 0.7 0.2 1.3v0.2c0.2 1.8 0.4 3.5 0.4 5.3l0 0 0 0c-0.2 6.8-2 13.5-5.7 19.2 0 0 0 0 0 0.2 -1.5 2.4-3.1 4.6-5.1 6.6l0 0c-0.4 0.4-0.7 0.7-1.3 1.1 -0.2 0.2-0.2 0.2-0.4 0.4 -0.4 0.2-0.5 0.5-0.9 0.7 -0.4 0.4-0.9 0.7-1.3 1.1l0 0c-6.6 5.1-14.4 7.7-22.8 7.7 0 0 0 0-0.2 0l0 0 0 0c-0.7 0-1.5 0-2 0 -11-0.5-21-5.8-27.8-14.6 -0.2-0.4-0.5-0.7-0.7-1.1 -1.1-1.8-1.5-3.8-1.1-5.8 0-0.2 0-0.2 0-0.4 -0.5-0.9-3.1-1.8-4.7-1.8 -4.9 0-9.7-0.9-14.2-2.9 -7.7-3.1-13.9-8.6-18.1-15.9 -0.4-0.7-0.7-1.3-1.1-2 -5.5-10-6-21.4-1.6-31.4 0.9-2.4 2.7-4 5.1-5.1 0.2 0 0.2-0.2 0.2-0.2 0.4-1.1-0.5-4.6-1.6-6.6 -1.8-3.7-3.3-7.9-3.8-12.2 -1.1-8.2 0.5-16.4 4.7-23.6 0 0 0 0 0-0.2l0 0 0 0c0.4-0.5 0.7-1.3 1.1-1.8 6-9.1 15.5-15.2 26.5-16.6 0.9-0.2 2-0.2 2.9 0 -2.6 6-3.8 12.6-3.7 19.2 -4.2 1.3-7.7 4-10.2 7.7 -0.2 0.4-0.4 0.5-0.5 0.9 -2 3.7-2.9 7.7-2.4 11.9 0.4 2.6 1.1 4.7 2.4 6.9s2.9 4 4.7 5.5c4 3.1 8.9 4.4 13.9 3.8 0.5 0 1.3-0.2 2 0h0.4H53l6-0.7 11.3 14.8c0.4 0.4 0.7 0.7 1.1 1.3 0.4 0.5 0.7 1.1 1.1 1.6l11.3 14.6 -3.5 7.7c-0.4 0.7-0.7 1.5-1.3 2.2l-0.2 0.2 -0.2 0.2c-3.1 6.2-8 11.5-14.1 15.2 -0.4 0.2-0.7 0.4-1.1 0.5 1.3 0.5 2.2 1.5 3.1 2.6 3.3 4.4 8.4 6.9 13.9 7.3 0.4 0 0.7 0 1.1 0 4.2 0 8-1.3 11.3-3.8l0 0 0 0c4-3.1 6.6-7.5 7.1-12.4 0.7-4.9-0.7-9.9-3.7-13.9 -0.4-0.5-0.7-1.1-1.1-1.6l-0.2-0.2 0.4-0.4L78 406.9c-0.4-0.4-0.5-0.7-0.7-1.3l-0.2-0.4h-0.4c-0.4-0.4-0.5-0.5-0.9-0.9L57 379.5c-0.5-0.7-0.9-1.3-1.3-2.2l-0.2-0.2 -0.2-0.2c-0.4-0.5-0.5-0.9-0.9-1.5 0-0.2-0.2-0.4-0.2-0.4 -0.2-0.4-0.4-0.7-0.5-0.9 -0.2-0.2-0.2-0.4-0.4-0.5 -0.2-0.4-0.4-0.7-0.5-0.9 0-0.2-0.2-0.4-0.2-0.5 -0.2-0.5-0.4-0.9-0.5-1.5 0-0.2-0.2-0.4-0.2-0.5 -0.2-0.4-0.2-0.5-0.4-0.9 0-0.2-0.2-0.5-0.2-0.7s-0.2-0.5-0.2-0.7c0-0.4-0.2-0.5-0.2-0.9 0-0.2-0.2-0.4-0.2-0.5 -0.4-1.1-0.5-2.2-0.7-3.5v-0.2c0-0.4-0.2-0.7-0.2-1.1v-0.2c-0.2-1.8-0.4-3.5-0.4-5.3 0.2-6.9 2.2-13.9 5.8-19.7 0.2-0.4 0.5-0.7 0.7-1.1 0-0.2 0.2-0.2 0.2-0.4 0.2-0.4 0.4-0.5 0.7-0.9 0.2-0.2 0.2-0.4 0.4-0.4 0.2-0.4 0.4-0.5 0.7-0.9 0.2-0.2 0.4-0.4 0.4-0.5 0.2-0.2 0.4-0.5 0.7-0.7 0.2-0.2 0.4-0.4 0.5-0.5 0.2-0.2 0.4-0.4 0.5-0.7 0.2-0.2 0.4-0.4 0.5-0.5 0.2-0.2 0.4-0.4 0.5-0.5 0.2-0.2 0.5-0.5 0.7-0.7 0.2-0.2 0.4-0.4 0.5-0.4 0.4-0.4 0.9-0.7 1.3-1.1 6.6-5.1 14.4-7.7 22.8-7.7 0.7 0 1.5 0 2.2 0 0.7 0 1.5 0.2 2 0.2l0 0c10 1.1 19.4 6.2 25.6 14.4 0.2 0.4 0.5 0.7 0.7 1.1 1.1 1.8 1.5 3.8 1.1 5.8 0 0.2 0 0.2 0.2 0.4 0.9 0.9 4.6 1.8 5.3 1.8 4.9 0 9.1 0.9 13.7 2.9 7.7 3.1 13.9 8.6 18.1 15.9 0.4 0.7 0.7 1.3 1.1 2C161.8 373.5 162.2 384.7 158 394.9z"/><line fill="none" x1="119.4" y1="443.8" x2="119.4" y2="443.8"/></g></svg>